<svg width="1700" height="443" viewBox="0 0 1700 443" fill="none" xmlns="http://www.w3.org/2000/svg">
<path d="M1576.43 306.533C1545.27 306.533 1526.52 293.88 1525.35 269.746L1554.17 269.746C1555.11 279.353 1563.31 284.039 1577.37 284.039C1590.02 284.039 1597.75 278.65 1597.75 270.214C1597.75 262.951 1592.13 259.202 1582.05 258.265L1563.78 256.39C1542.45 254.047 1529.1 241.394 1529.1 221.946C1529.1 199.218 1547.38 185.159 1576.43 185.159C1605.25 185.159 1623.53 197.343 1624.93 221.243L1597.05 221.243C1596.58 212.105 1588.61 207.887 1575.96 207.887C1564.01 207.887 1556.51 212.574 1556.51 220.54C1556.51 227.335 1561.9 231.084 1573.38 232.49L1591.89 234.599C1613.45 237.176 1625.87 249.829 1625.87 268.809C1625.87 291.771 1606.89 306.533 1576.43 306.533Z" fill="#212234"/>
<path d="M1460.82 306.533C1444.42 306.533 1430.36 300.207 1423.1 289.428L1423.1 303.018L1398.5 303.018L1398.5 139L1426.38 139L1426.38 199.921C1433.41 190.549 1446.06 185.159 1460.82 185.159C1493.39 185.159 1515.65 209.528 1515.65 245.846C1515.65 282.165 1493.39 306.533 1460.82 306.533ZM1425.91 245.846C1425.91 266.934 1438.1 281.227 1456.37 281.227C1474.41 281.227 1486.83 266.934 1486.83 245.846C1486.83 224.758 1474.41 210.465 1456.37 210.465C1438.1 210.465 1425.91 224.758 1425.91 245.846Z" fill="#212234"/>
<path d="M1314.16 306.533C1287.69 306.533 1270.82 292.708 1270.82 270.449C1270.82 249.361 1284.64 234.833 1312.52 232.959L1344.39 231.084L1344.39 225.461C1344.39 213.277 1338.3 208.122 1324.94 208.122C1311.82 208.122 1305.73 211.636 1304.09 221.243L1276.44 221.243C1278.78 197.812 1294.95 185.159 1326.82 185.159C1354.47 185.159 1370.87 199.218 1370.87 223.821L1370.87 277.009C1370.87 279.353 1372.04 280.524 1374.38 280.524L1384.46 280.524L1384.46 303.018L1363.37 303.018C1355.4 303.018 1350.48 298.566 1350.48 290.834L1350.48 289.897C1343.92 300.206 1331.03 306.533 1314.16 306.533ZM1298.7 269.511C1298.7 277.947 1305.49 283.57 1317.91 283.57C1333.38 283.57 1344.39 275.135 1344.39 258.499L1344.39 252.172L1316.74 254.516C1304.56 255.453 1298.7 261.779 1298.7 269.511Z" fill="#212234"/>
<path d="M1155.79 303.018L1155.79 139L1184.61 139L1184.61 276.072L1259.59 276.073L1259.59 303.018L1155.79 303.018Z" fill="#212234"/>
<path d="M969.095 303.018L969.095 139L996.978 139L996.978 197.578C1004.24 189.377 1015.25 185.159 1027.91 185.159C1056.02 185.159 1073.36 202.967 1073.36 233.896L1073.36 303.018L1045.48 303.018L1045.48 236.708C1045.48 218.9 1037.05 210.465 1022.28 210.465C1007.05 210.465 996.978 221.243 996.978 237.645L996.978 303.018L969.095 303.018Z" fill="#212234"/>
<path d="M897.598 306.533C862.685 306.533 840.894 280.758 840.895 246.315C840.895 210.465 864.091 185.159 899.004 185.159C928.527 185.159 949.147 202.498 951.49 227.57L923.138 227.57C921.029 218.431 912.828 210.465 898.77 210.465C880.962 210.465 869.715 224.289 869.715 245.846C869.715 267.871 881.196 281.227 898.535 281.227C911.891 281.227 921.263 273.26 923.607 261.779L951.958 261.779C948.912 285.21 929.699 306.533 897.598 306.533Z" fill="#212234"/>
<path d="M719.781 303.018L719.781 188.674L744.384 188.674L744.384 202.03C751.179 190.783 764.066 185.159 778.594 185.159C806.711 185.159 824.05 202.967 824.05 233.896L824.05 303.018L796.167 303.018L796.167 236.708C796.167 218.9 787.732 210.465 772.97 210.465C757.74 210.465 747.664 221.243 747.664 237.645L747.664 303.018L719.781 303.018Z" fill="#212234"/>
<path d="M635.448 306.533C608.971 306.533 592.101 292.708 592.101 270.449C592.101 249.361 605.925 234.833 633.808 232.959L665.674 231.084L665.674 225.461C665.674 213.277 659.582 208.122 646.227 208.122C633.105 208.122 627.013 211.636 625.373 221.243L597.724 221.243C600.067 197.812 616.235 185.159 648.101 185.159C675.75 185.159 692.152 199.218 692.152 223.821L692.152 277.009C692.152 279.353 693.323 280.524 695.666 280.524L705.742 280.524L705.742 303.018L684.654 303.018C676.687 303.018 671.767 298.566 671.767 290.834L671.767 289.897C665.206 300.206 652.319 306.533 635.448 306.533ZM619.984 269.511C619.984 277.947 626.779 283.57 639.197 283.57C654.662 283.57 665.674 275.135 665.674 258.499L665.674 252.172L638.026 254.516C625.841 255.453 619.984 261.779 619.984 269.511Z" fill="#212234"/>
<path d="M513.377 303.018L513.377 188.674L537.98 188.674L537.98 208.59C540.791 195.938 549.695 188.674 563.988 188.674L585.076 188.674L585.076 213.277L560.942 213.277C547.352 213.277 541.26 220.306 541.26 234.599L541.26 303.018L513.377 303.018Z" fill="#212234"/>
<path d="M369 303.018L369 139L440.699 139C470.691 139 489.671 154.933 489.671 180.005C489.671 195.938 480.767 209.294 468.114 216.089C483.578 222.181 494.357 236.005 494.357 255.219C494.357 283.336 475.143 303.018 443.511 303.018L369 303.018ZM397.82 276.541L439.528 276.541C455.695 276.541 465.068 267.637 465.068 252.641C465.068 237.645 455.93 229.444 439.528 229.444L397.82 229.444L397.82 276.541ZM397.82 204.607L436.716 204.607C451.712 204.607 460.382 197.344 460.382 184.925C460.382 172.038 451.243 165.477 436.716 165.477L397.82 165.477L397.82 204.607Z" fill="#212234"/>
<path d="M198 74C242.735 74 279 110.265 279 155C279 182.301 265.493 206.447 244.798 221.121C265.502 235.9 279 260.124 279 287.5C279 332.16 243.079 368.429 198.554 368.993L74 368.998V339H197.5C225.943 339 249 315.943 249 287.5C249 263.824 233.024 243.881 211.265 237.86C203.56 274.726 171.097 302.499 132.06 302.993L74 303V273H131C154.504 273 174.365 257.406 180.804 236H74V206H180.804C174.365 184.594 154.504 169 131 169H74V139L132.06 139.007C171.136 139.502 203.625 167.33 211.288 204.252C233.011 198.405 249 178.57 249 155C249 126.833 226.167 104 198 104H74V74H198Z" fill="#212234"/>
</svg>
